<?xml version="1.0" encoding="UTF-8" standalone="no"?>
<!-- Created with Inkscape (http://www.inkscape.org/) -->

<svg
   version="1.1"
   id="svg1"
   width="941.33331"
   height="941.33331"
   viewBox="0 0 941.33331 941.33331"
   xmlns="http://www.w3.org/2000/svg"
   xmlns:svg="http://www.w3.org/2000/svg">
  <defs
     id="defs1" />
  <g
     id="g1">
    <path
       style="fill:#c2c2c2;fill-opacity:0.991197"
       d="m 389.4367,781.03413 -4.59237,-3.49022 12.15304,0.79622 c 6.68418,0.43792 13.15181,1.17947 14.37252,1.64791 4.23946,1.62683 -1.99742,4.44848 -9.93319,4.49391 -5.972,0.0342 -8.29765,-0.63402 -12,-3.44782 z m 98.07429,1.4318 c -2.93333,-0.95515 -10.28333,-1.78275 -16.33333,-1.83911 -6.05,-0.0564 -11,-0.55588 -11,-1.11005 0,-0.55416 10.95,-1.00416 24.33333,-1 24.53799,0.008 46.04549,-1.75136 65.66667,-5.3706 5.86666,-1.08213 13.06666,-1.97776 16,-1.99027 6.67068,-0.0285 28.10891,-7.529 38.52179,-13.47752 10.04663,-5.73929 12.81154,-10.62377 12.81154,-22.63279 0,-9.55622 -4.34777,-38.10775 -7.28721,-47.85457 -0.9952,-3.3 -2.19251,-7.72319 -2.66068,-9.8293 l -0.85122,-3.8293 -4.64474,5.42634 c -2.55461,2.98448 -8.17294,7.5696 -12.48517,10.18914 -13.29074,8.0737 -46.87848,17.94704 -81.15509,23.85607 -6.09626,1.05096 -11.4565,2.28321 -11.91163,2.73835 -1.1924,1.1924 24.22541,-0.37248 43.38667,-2.67115 9.01502,-1.08148 16.96502,-1.61153 17.66667,-1.17789 2.09024,1.29184 1.44919,4.40097 -1.0576,5.12941 -2.23654,0.64991 -23.90346,3.24564 -51.19996,6.13383 -44.63383,4.72262 -149.21637,6.33342 -186.4667,2.87199 -50.47787,-4.69058 -62.93652,-7.1441 -73.63059,-14.50033 -3.63359,-2.49947 -6.83307,-4.31794 -7.10996,-4.04105 -0.87947,0.87946 -3.23713,24.06808 -3.24851,31.95042 -0.0192,13.28465 3.56619,18.77497 16.561,25.36009 8.09468,4.10197 20.57665,5.95814 57.09473,8.49042 10.31268,0.71512 11.66666,1.1046 11.66666,3.35598 0,3.15881 -2.02338,3.20946 -23.37314,0.58515 -8.77811,-1.07901 -21.25967,-2.55767 -27.73681,-3.28593 -18.54891,-2.08555 -31.16609,-9.00161 -36.95711,-20.25789 -5.56868,-10.82412 -7.16601,-40.58139 -2.76877,-51.58051 1.37363,-3.43595 3.76959,-14.10745 5.32436,-23.71445 3.10204,-19.16761 5.67567,-26.51967 14.88879,-42.53272 20.06857,-34.88058 39.37393,-55.67656 77.95602,-83.97523 14.98141,-10.98837 28.38396,-23.27025 38.58577,-35.35936 14.59422,-17.29412 17.57984,-27.92087 10.20446,-36.32096 -4.12105,-4.69362 -6.6933,-6.10203 -30.79024,-16.85888 -8.43333,-3.76463 -16.94673,-7.88896 -18.91867,-9.16518 -10.53487,-6.81805 -30.15781,-23.08848 -38.09106,-31.58333 -4.97493,-5.3271 -10.87664,-10.63265 -13.1149,-11.7901 -2.23827,-1.15745 -4.82444,-3.014 -5.74703,-4.12567 -0.9226,-1.11166 -4.2971,-3.28935 -7.49889,-4.83931 -4.51306,-2.18473 -6.41696,-2.4994 -8.47112,-1.40004 -1.45732,0.77993 -3.26801,1.41806 -4.02376,1.41806 -2.24226,0 -4.5572,-5.58442 -4.37076,-10.54374 0.11707,-3.1142 -0.95477,-6.09932 -3.28878,-9.15937 -3.00474,-3.93941 -3.24645,-4.94312 -1.82846,-7.59265 1.01163,-1.89026 1.22603,-4.2563 0.56288,-6.21203 -0.58911,-1.73738 -0.93118,-3.67203 -0.76016,-4.29922 0.17102,-0.62719 -0.3049,-1.8824 -1.0576,-2.78935 -0.7527,-0.90695 -1.0144,-2.00314 -0.58156,-2.43598 0.43284,-0.43284 -0.4381,-0.46662 -1.93541,-0.0751 -1.64158,0.42928 -3.05936,2.24613 -3.57116,4.57633 -1.10289,5.02141 -4.68452,5.17866 -4.50398,0.19774 l 0.13291,-3.66667 0.92848,3.33334 c 0.81616,2.9301 1.04202,3.03788 1.86709,0.89095 1.63241,-4.24772 1.07811,-8.89095 -1.06139,-8.89095 -1.1,0 -2.07057,1.05 -2.15682,2.33333 -0.25348,3.77137 -2.59829,-10.52069 -2.63825,-16.08061 -0.0338,-4.70494 -0.29802,-5.05 -3.57325,-4.66666 -5.20323,0.60898 -7.98658,8.41308 -5.71027,16.01072 1.22123,4.0761 1.96067,5.01791 2.84403,3.62239 1.65616,-2.61638 1.54256,-0.28603 -0.13924,2.85644 -1.00885,1.88506 -0.83305,3.61266 0.66178,6.50334 1.28124,2.47764 1.54328,4.24063 0.70714,4.7574 -0.73065,0.45156 -1.32845,2.28561 -1.32845,4.07567 0,1.79005 -0.64043,3.25464 -1.42318,3.25464 -0.83704,0 -1.07564,-1.23556 -0.57933,-3 0.53142,-1.88924 0.41216,-2.38295 -0.32211,-1.33343 -0.92756,1.3258 -1.66032,1.30509 -3.58368,-0.1013 -1.94936,-1.42541 -2.40086,-3.55852 -2.33073,-11.01158 0.0478,-5.08403 0.64896,-10.73844 1.33582,-12.56536 1.67765,-4.46221 -1.4464,-10.88616 -4.77397,-9.81667 -1.77266,0.56974 -1.89427,0.4404 -0.51347,-0.54609 1.1245,-0.80337 1.469,-2.365 0.91015,-4.12577 -0.75286,-2.37207 -0.35761,-2.83313 2.42875,-2.83313 1.83037,0 4.19937,-0.87143 5.26445,-1.93651 1.06508,-1.06508 2.34056,-1.53245 2.8344,-1.03861 0.49384,0.49384 1.38897,0.10332 1.98917,-0.86782 0.87094,-1.40921 1.69842,-1.44077 4.09842,-0.15633 l 3.00715,1.60937 -1.04981,-7.80505 c -0.5774,-4.29278 -1.08288,-8.99836 -1.1233,-10.45684 -0.0404,-1.45849 -1.29492,-4.04616 -2.78778,-5.75039 -3.24254,-3.70165 -4.34501,-7.87889 -4.55653,-17.26449 -0.13261,-5.88444 -0.55383,-7 -2.64308,-7 -3.2956,0 -8.54987,-8.00618 -12.03521,-18.33864 -7.21674,-21.39433 -6.34546,-21.90033 101.85387,-59.15177 16.86667,-5.80694 32.16667,-11.64702 34,-12.97794 4.28994,-3.11433 9.34602,-4.13892 27.33333,-5.539 8.06667,-0.62789 20.41641,-2.07973 27.44388,-3.22632 11.88598,-1.93929 19.99934,-2.91539 67.88945,-8.16762 45.10568,-4.94685 71.40821,-5.26583 98.70712,-1.19704 22.24761,3.31591 29.29047,6.90643 31.88704,16.25632 3.93673,14.17562 -0.3583,44.85543 -7.88761,56.34201 -1.61632,2.46583 -2.25127,6.92762 -2.43975,17.14411 l -0.2548,13.81077 5.89862,6.56068 c 12.63961,14.05829 23.42271,32.99374 23.42271,41.13099 0,7.09752 -2.45318,8.02012 -21.32552,8.02012 h -14.48525 l -2.15654,7.66667 c -6.90122,24.5345 -20.69681,47.91425 -39.31417,66.62677 -9.7202,9.76989 -30.26341,27.20712 -61.94718,52.58125 -5.8091,4.65225 -11.70304,10.01058 -13.09765,11.90741 -3.81861,5.19373 -4.4561,13.45115 -1.61315,20.89529 3.19492,8.36579 21.21878,26.38474 49.2728,49.25938 48.57437,39.60648 70.76098,63.98281 88,96.68521 4.4,8.34679 9.75287,18.0747 11.89527,21.61757 6.4796,10.71525 10.14246,23.0247 13.51752,45.42711 4.01526,26.65185 4.17155,37.93096 0.62698,45.2457 -3.47116,7.16324 -13.20128,13.45382 -29.37311,18.98988 -15.94344,5.45788 -45.00081,10.33177 -50.08104,8.40027 -2.64959,-1.00737 -4.54338,-0.85375 -7.46933,0.6059 -3.37131,1.68184 -10.34216,2.71356 -35.78296,5.29609 -2.56666,0.26055 -7.06666,-0.30777 -10,-1.26293 z m -72.11111,-57.93205 c 4.33889,-0.005 7.57879,-0.31963 7.19978,-0.69864 -0.37901,-0.37901 -12.92901,-0.97705 -27.88889,-1.32898 -74.78414,-1.75929 -110.67592,-5.4745 -128.33494,-13.28416 -4.18414,-1.85043 -8.42061,-3.36442 -9.41437,-3.36442 -0.99376,0 -3.86507,-2.27822 -6.38069,-5.06271 l -4.57385,-5.06271 -2.4826,3.29125 c -2.48176,3.29016 -2.48107,3.29256 2.08538,7.21058 11.01135,9.44776 21.14011,11.51601 83.23463,16.99615 25.03175,2.20917 27.3149,2.28593 53.33333,1.79306 13.93333,-0.26394 28.88333,-0.48418 33.22222,-0.48942 z m -180.64926,-17.6762 c 0.0515,-1.28333 -0.50629,-2.33333 -1.23962,-2.33333 -0.73334,0 -1.29116,2.25 -1.23962,5 0.0752,4.01093 0.32039,4.4725 1.23962,2.33333 0.63025,-1.46666 1.18807,-3.71666 1.23962,-5 z m 10.70784,-19.66666 -0.0317,-3.33333 -3.2912,3.74101 c -4.20185,4.77613 -4.19013,6.42503 0.0317,4.46687 2.26261,-1.04943 3.31281,-2.60486 3.2912,-4.87455 z m 0.0106,-13.36013 c 0.0475,-3.80601 4.35795,-20.41494 7.54039,-29.05421 2.86209,-7.76961 1.58654,-8.33807 -2.61653,-1.16609 -4.20951,7.183 -9.61993,23.33399 -10.70685,31.96173 l -0.80391,6.3813 3.2725,-2.3813 c 1.94577,-1.41588 3.28948,-3.74356 3.3144,-5.74143 z m 130.70543,4.0268 c 1.84033,0 12.95493,-10.97626 16.59916,-16.39255 5.65769,-8.40883 4.10902,-22.16553 -3.64073,-32.34043 -7.43236,-9.75818 -8.60581,-10.21679 -21.92713,-8.56971 -6.43216,0.79529 -11.90606,2.0474 -12.16422,2.78247 -0.25815,0.73507 -1.51989,2.35283 -2.80385,3.59502 -3.62164,3.50381 -9.25542,20.01102 -10.01627,29.34808 -0.76666,9.40827 1.22558,15.02958 6.30331,17.78545 3.31358,1.7984 21.97224,5.01365 24.76191,4.26696 0.97665,-0.26141 2.27616,-0.47529 2.88782,-0.47529 z m -26.69028,-8.69889 c -0.92762,-1.11772 -1.42838,-2.29044 -1.11278,-2.60603 0.31559,-0.3156 1.30618,0.5989 2.2013,2.03222 1.93575,3.09963 1.29017,3.43995 -1.08852,0.57381 z m 122.81596,-1.41991 c 6.5861,-1.49798 10.80903,-3.36596 14.05766,-6.21829 12.79918,-11.23783 13.99004,-30.1596 2.83293,-45.01294 -7.85503,-10.45732 -11.67981,-16.06175 -11.67981,-17.11441 0,-2.17604 -7.7251,-8.09937 -17.44708,-13.37778 -7.69826,-4.17966 -11.5842,-5.49112 -16.27059,-5.49112 -8.42472,0 -16.94899,3.9756 -16.94899,7.90477 0,0.78571 -0.89492,1.42857 -1.9887,1.42857 -1.09379,0 -2.73812,1.2 -3.65407,2.66666 -0.91595,1.46667 -2.48522,2.66667 -3.48728,2.66667 -1.03535,0 -1.50482,0.82636 -1.08742,1.91409 0.41559,1.08301 -1.28664,4.12066 -3.92048,6.99615 -5.97744,6.52584 -11.22311,17.39128 -10.66461,22.08976 0.23972,2.01667 2.8e-4,3.66667 -0.53208,3.66667 -1.56426,0 -0.80738,3.91997 3.21805,16.66666 4.2273,13.38593 6.87237,19.24666 9.72763,21.55367 3.13712,2.53474 46.32256,2.28156 57.84484,-0.33913 z m 1.62876,-27.3137 c 1.69543,-5.82192 3.34809,-6.86784 5.48898,-3.47381 1.00795,1.59792 0.55234,2.95517 -1.85066,5.51305 -4.49006,4.77944 -5.4649,4.23305 -3.63832,-2.03924 z M 257.7996,657.28022 c 8.81169,-17.30968 27.12779,-37.63706 41.52892,-46.0892 3.12371,-1.83333 7.44264,-4.71713 9.59762,-6.40843 7.26171,-5.69925 13.22015,-9.56772 19.08147,-12.38849 3.2065,-1.54313 9.44952,-5.1451 13.87338,-8.00438 4.42387,-2.85929 8.87248,-5.1987 9.88581,-5.1987 1.8645,0 15.0203,-11.90442 27.99636,-25.33333 4.62519,-4.78662 9.26433,-11.72069 13.3585,-19.96683 5.61836,-11.31605 6.26408,-13.54872 6.1921,-21.41003 -0.11785,-12.8698 -3.72178,-26.64034 -6.96607,-26.61716 -0.4602,0.003 -0.93926,2.03414 -1.06458,4.513 -0.25176,4.98031 -4.30978,13.72174 -9.58832,20.65434 -3.39034,4.45273 -36.79082,33.46862 -62.34413,54.16001 -25.57455,20.7086 -38.01076,34.00066 -49.14206,52.524 -8.83384,14.70017 -10.88843,19.70463 -18.93974,46.13221 -0.72497,2.37965 -0.57082,2.45835 1.48055,0.75586 1.25938,-1.04519 3.53196,-4.34048 5.05019,-7.32287 z m 324.14732,-31.72365 c -0.70255,-0.93438 -4.63681,-6.23608 -8.74281,-11.78154 -9.30611,-12.56863 -30.04727,-34.42739 -41.03933,-43.25068 -4.56794,-3.66666 -12.58375,-10.30803 -17.81292,-14.75859 -5.22917,-4.45055 -14.30758,-11.86545 -20.17424,-16.47755 -5.86667,-4.61209 -17.07814,-14.33218 -24.91439,-21.6002 -17.85413,-16.55946 -21.68448,-23.30393 -20.83264,-36.68196 l 0.5639,-8.85577 -4.51633,5.18704 c -10.0306,11.52023 -12.30054,16.31903 -12.30054,26.0042 0,11.91769 3.0392,18.55067 13.16046,28.72245 9.83925,9.88834 33.42044,28.0046 40.05668,30.77354 6.00218,2.50438 22.02787,12.79181 27.84689,17.87586 2.41854,2.11307 8.71854,6.01525 13.99999,8.67151 12.99634,6.5364 26.98839,15.70225 34.37195,22.51622 3.35645,3.09753 8.46526,7.12333 11.35291,8.94622 2.88764,1.82289 6.07696,4.31045 7.08736,5.52791 2.09647,2.5261 3.84076,1.77177 1.89306,-0.81866 z M 388.1427,488.1482 c 0.1209,-12.82711 -17.10311,-28.45299 -39.29837,-35.65205 -2.93334,-0.95143 -9.23333,-4.24387 -14,-7.31652 -26.63455,-17.16897 -32.65865,-20.4563 -34.33897,-18.73867 -1.17081,1.1968 6.82184,8.37457 16.41803,14.74416 3.73487,2.47907 7.60482,5.48839 8.5999,6.68739 1.82657,2.20087 9.76843,6.14349 30.84125,15.31065 16.25792,7.07257 23.55452,12.41759 26.71978,19.57321 1.77251,4.00705 2.33452,7.26853 1.75196,10.1671 -0.47174,2.34716 -1.10762,5.46755 -1.41307,6.93422 -0.30544,1.46667 0.62362,0.26667 2.06458,-2.66667 1.44097,-2.93333 2.63567,-7.0026 2.65491,-9.04282 z m 120.55372,-65.00647 c 29.44728,-23.64228 47.99092,-48.47014 56.88085,-76.15714 2.34001,-7.28777 3.91201,-13.59305 3.49334,-14.01172 -0.41868,-0.41868 -3.34087,-1.0503 -6.49376,-1.4036 l -5.73253,-0.64237 -0.22265,7.90059 c -0.25963,9.21263 -5.31224,25.21777 -11.94646,37.84273 -4.73566,9.01201 -27.60596,35.39802 -42.25961,48.75593 -4.1642,3.79599 -7.57127,7.31946 -7.57127,7.82993 0,1.04217 -0.48307,1.39488 13.85209,-10.11435 z m -106.51876,4.04929 c 1.04291,-1.68746 -0.72217,-1.68746 -3.33333,0 -1.72359,1.11387 -1.68839,1.29533 0.25464,1.31292 1.24006,0.0112 2.62547,-0.57958 3.07869,-1.31292 z m 8.85604,-0.3368 c 1.36251,0.3563 2.47729,0.0611 2.47729,-0.65613 0,-0.71717 1.5,-1.0172 3.33334,-0.66673 2.23505,0.42725 3.34006,0.0369 3.35375,-1.1849 0.0161,-1.43902 0.247,-1.46508 1.09816,-0.12392 0.82325,1.29717 1.65436,1.06103 3.51957,-1 1.343,-1.484 1.78423,-2.69818 0.98052,-2.69818 -0.80371,0 -1.81592,0.57379 -2.24935,1.2751 -0.43343,0.7013 -1.67648,0.93418 -2.76233,0.5175 -1.08586,-0.41668 -2.86664,-0.017 -3.9573,0.88816 -1.4853,1.23268 -1.98302,1.25037 -1.98302,0.0705 0,-0.92664 -0.68627,-1.14655 -1.66667,-0.53408 -0.91667,0.57266 -2.46352,1.16185 -3.43745,1.30932 -3.41945,0.51777 -5.56255,1.737 -5.56255,3.1646 0,0.94525 0.75365,1.01967 2.18938,0.2162 1.20416,-0.67388 3.30416,-0.93372 4.66666,-0.57741 z m -22.36947,-3.61643 c 1.09055,-1.09055 0.0839,-1.31085 -3.79283,-0.83002 -4.15788,0.51571 -6.16165,-0.0199 -9.44566,-2.52471 l -4.16825,-3.17928 -3.15709,2.91029 -3.15709,2.91029 2.45981,-2.9661 c 2.43219,-2.93278 2.41665,-2.98282 -1.38282,-4.45472 -4.11219,-1.59304 -9.72002,0.34786 -10.84685,3.75415 -0.77268,2.33574 2.9975,2.08461 5.00421,-0.33333 0.91292,-1.1 2.27938,-2 3.03658,-2 0.7572,0 0.36246,1.12074 -0.87719,2.49054 -2.15005,2.37578 -2.0574,2.52986 2.01053,3.34344 3.07187,0.61438 5.03625,0.19754 7.02429,-1.49055 2.47212,-2.09913 2.57621,-2.10591 0.99848,-0.065 -1.55165,2.00713 -1.3108,2.37819 2.02298,3.11662 2.08138,0.46103 4.38433,0.98629 5.11766,1.16724 2.60188,0.64204 7.69013,-0.38573 9.15324,-1.84883 z m 6.09304,-0.60853 c 1.29053,-1.555 1.08055,-1.76638 -1.17007,-1.17783 -1.50858,0.3945 -2.74287,1.2473 -2.74287,1.8951 0,1.79843 2.15257,1.40384 3.91294,-0.71727 z m 36.08706,-0.77157 c 1.13908,-2.1284 1.01398,-2.66667 -0.61976,-2.66667 -1.1258,0 -2.04691,0.25093 -2.04691,0.55762 0,0.30669 -0.36419,1.50669 -0.80932,2.66667 -1.17638,3.06559 1.79173,2.58945 3.47599,-0.55762 z m 5.33333,-0.62328 c 0,0.57012 1.05,0.13479 2.33333,-0.9674 1.28334,-1.10219 3.38334,-2.37636 4.66667,-2.83147 1.28333,-0.45512 2.33333,-1.48173 2.33333,-2.28136 0,-0.83862 -0.7053,-1.00603 -1.66666,-0.3956 -1.63922,1.04085 -2.34842,1.26766 -5,1.59911 -0.73334,0.0917 -1.34252,1.21667 -1.35375,2.5 -0.0175,1.99756 -0.20935,2.04553 -1.33334,0.33333 -1.16703,-1.77777 -1.45879,-1.77777 -2.62583,0 -1.98163,3.01867 -1.61261,4.54136 0.64625,2.66667 1.1,-0.91292 2,-1.19339 2,-0.62328 z m -23.33333,-0.71005 c 0.45322,-0.73334 -0.11137,-1.33334 -1.25465,-1.33334 -1.14328,0 -2.07869,0.6 -2.07869,1.33334 0,0.73333 0.56459,1.33333 1.25465,1.33333 0.69005,0 1.62546,-0.6 2.07869,-1.33333 z m -18.58756,-4.24926 c 0.89356,-2.81535 0.98863,-2.82955 2.75652,-0.41183 1.70659,2.3339 2.48631,1.78261 1.89369,-1.33891 -0.14141,-0.74489 0.42282,-0.67 1.27846,0.16968 0.91813,0.901 3.226,1.14652 5.7619,0.61297 2.32668,-0.48952 5.60338,-0.7967 7.28157,-0.68261 1.72272,0.11712 2.83542,-0.44004 2.55555,-1.27963 -0.27263,-0.81789 -1.19569,-1.42708 -2.05124,-1.35375 -0.85556,0.0733 -6.95556,0.22334 -13.55556,0.33334 -6.97778,0.11629 -12,0.75802 -12,1.53333 0,0.73333 0.97347,1.33333 2.16326,1.33333 1.77172,0 1.86284,0.36199 0.50341,2 -1.3544,1.63196 -1.2783,2 0.41355,2 1.14038,0 2.48988,-1.31216 2.99889,-2.91592 z m 32.56575,0.95117 c 2.23396,-0.0398 3.67458,-4.70191 1.45291,-4.70191 -0.78711,0 -1.4311,0.53002 -1.4311,1.17782 0,0.64781 -1.2,1.49163 -2.66667,1.87518 -1.46667,0.38354 -2.66667,1.38893 -2.66667,2.23419 0,0.8971 0.6938,1.10249 1.66667,0.4934 0.91667,-0.57389 2.55685,-1.0593 3.64486,-1.07868 z m -70.91153,-0.96858 c 2.0755,-2.07549 2.0403,-3.73333 -0.0793,-3.73333 -0.9236,0 -2.42868,1.2 -3.34463,2.66666 -1.34676,2.15651 -1.33159,2.66667 0.0793,2.66667 0.95955,0 2.46463,-0.72 3.34463,-1.6 z m 26.93334,-1.06667 c 0,-0.73333 -0.91883,-1.33333 -2.04185,-1.33333 -1.12301,0 -2.36941,-0.85361 -2.76976,-1.89691 -0.8641,-2.25182 -4.52173,-3.91916 -4.52173,-2.06124 0,2.01139 5.10683,6.62482 7.33334,6.62482 1.1,0 2,-0.6 2,-1.33334 z m 50.66666,0 c 0,-0.73333 -0.6,-1.33333 -1.33333,-1.33333 -0.73333,0 -1.33333,0.6 -1.33333,1.33333 0,0.73334 0.6,1.33334 1.33333,1.33334 0.73333,0 1.33333,-0.6 1.33333,-1.33334 z m 17.33334,-2.76747 c 0,-0.63186 -0.9,-0.80347 -2,-0.38136 -1.1,0.42211 -2,1.28445 -2,1.91631 0,0.63186 0.9,0.80347 2,0.38136 1.1,-0.42211 2,-1.28445 2,-1.91631 z m -104.61184,0.0121 c 0.48337,-0.78212 0.564,-1.73691 0.17917,-2.12174 -1.04701,-1.04701 -6.234,0.86695 -6.234,2.3003 0,1.71691 4.97402,1.57023 6.05483,-0.17856 z m 25.02007,0.56397 c -0.87547,-0.35615 -1.29153,-1.42993 -0.92459,-2.38618 0.67599,-1.76158 -3.14245,-3.36961 -8.08364,-3.40421 -3.07292,-0.0215 -1.37113,2.02733 2.6,3.13025 1.46666,0.40734 0.71666,0.56949 -1.66667,0.36034 -5.25439,-0.46111 -5.82416,1.42157 -0.66667,2.20287 5.26685,0.79786 10.6102,0.85711 8.74157,0.0969 z m 48.9251,-0.47526 c 0,-0.73334 -0.6,-1.33334 -1.33333,-1.33334 -0.73334,0 -1.33334,0.6 -1.33334,1.33334 0,0.73333 0.6,1.33333 1.33334,1.33333 0.73333,0 1.33333,-0.6 1.33333,-1.33333 z m 24,-2.99319 c 0,-0.74377 -0.88435,-0.59939 -2,0.32652 -1.1,0.91292 -2,2.25985 -2,2.99319 0,0.74377 0.88435,0.59939 2,-0.32652 1.1,-0.91292 2,-2.25985 2,-2.99319 z m 7.50103,-1.67348 c 0.0922,0 0.58147,-1.34622 1.08719,-2.99161 0.7276,-2.3673 0.48392,-2.82447 -1.1677,-2.19068 -1.14795,0.44051 -2.13456,1.78673 -2.19245,2.99161 -0.0671,1.39633 -0.35012,1.58333 -0.78055,0.51571 -0.9537,-2.36558 -3.11419,-0.67863 -3.11419,2.43163 0,2.30383 0.341,2.40855 3,0.92131 1.65,-0.92288 3.07547,-1.67797 3.1677,-1.67797 z m 3.8323,2 c 0.45323,-0.73333 0.22405,-1.33333 -0.50929,-1.33333 -0.73333,0 -1.70415,0.6 -2.15737,1.33333 -0.45323,0.73333 -0.22405,1.33333 0.50928,1.33333 0.73334,0 1.70416,-0.6 2.15738,-1.33333 z M 335.5828,408.40818 c 0.49271,-0.79723 0.20314,-2.14221 -0.6435,-2.98885 -1.16357,-1.16357 -1.8298,-1.06938 -2.72918,0.38585 -1.27082,2.05623 -0.63001,4.05251 1.30088,4.05251 0.64677,0 1.57908,-0.65228 2.0718,-1.44951 z m 87.59486,0.56647 c -0.91667,-0.36988 -2.41667,-0.36988 -3.33333,0 -0.91667,0.36988 -0.16667,0.67251 1.66666,0.67251 1.83334,0 2.58334,-0.30263 1.66667,-0.67251 z m 55.78891,-18.10741 c 10.19811,-13.35975 16.46848,-24.16311 19.82339,-34.15419 3.40413,-10.13765 2.95976,-14.084 -0.53315,-4.73481 -3.25252,8.70575 -14.80799,30.72678 -19.12642,36.44882 -4.71561,6.24832 -13.51798,14.52647 -17.95273,16.88358 -2.01667,1.07188 -3.66667,2.53959 -3.66667,3.26158 0,3.26613 14.71891,-8.8798 21.45558,-17.70498 z m -87.78891,16.77408 c -0.91667,-0.36989 -2.41667,-0.36989 -3.33333,0 -0.91667,0.36988 -0.16667,0.67251 1.66666,0.67251 1.83334,0 2.58334,-0.30263 1.66667,-0.67251 z m 12.33333,-0.4883 c -1.7586,-0.73064 0.85208,-1.13981 7.66667,-1.20162 9.62835,-0.0873 10.33333,-0.28765 10.33333,-2.93633 0,-8.46312 13.11998,-18.69329 20.41614,-15.91929 1.82312,0.69314 4.21805,2.54989 5.32207,4.1261 1.62233,2.31619 2.50902,2.59732 4.62326,1.46582 6.45095,-3.45245 20.62324,-22.40586 29.19115,-39.039 0.24809,-0.48161 -0.74014,-0.56415 -2.19605,-0.18342 -1.45591,0.38073 -4.19569,0.30357 -6.0884,-0.17147 -4.91644,-1.23395 -3.9198,-6.11113 1.83617,-8.98549 l 4.43766,-2.21603 -8.771,-0.9393 c -5.84107,-0.62552 -8.771,-1.52005 -8.771,-2.67783 0,-1.17491 -2.91784,-2.00957 -9,-2.5745 -4.95,-0.45978 -10.04186,-1.40753 -11.31524,-2.10613 -1.27338,-0.69859 -4.69887,-1.27017 -7.6122,-1.27017 -2.91333,0 -9.97147,-0.61828 -15.68476,-1.37396 -24.22845,-3.20463 -30.22685,-4.4651 -32.61533,-6.85357 -1.34152,-1.34153 -3.03913,-2.43914 -3.77247,-2.43914 -0.73333,0 -1.33333,-2.05106 -1.33333,-4.55792 0,-3.75289 0.80758,-5.05703 4.57238,-7.3838 2.51481,-1.55424 4.76481,-3.33824 5,-3.96444 0.23519,-0.6262 6.72762,-3.11821 14.42762,-5.53781 12.02229,-3.7778 15.88354,-4.39236 27.33333,-4.35038 13.8593,0.0508 23.4237,2.27906 32.39027,7.54607 5.51774,3.24115 6.55348,2.26345 3.78428,-3.57221 -2.66872,-5.62391 -2.77671,-12.3271 -0.27583,-17.12087 1.03527,-1.98442 1.60581,-4.68442 1.26789,-6 -0.89821,-3.49684 4.06754,-6.11951 9.27884,-4.90063 2.32167,0.54302 5.4767,0.84906 7.01118,0.68009 4.52946,-0.49877 9.52631,7.28458 8.87783,13.82857 -0.4653,4.69541 0.0389,5.88061 4.2152,9.90886 2.60905,2.51654 5.1009,4.21836 5.53745,3.78181 0.43654,-0.43654 -0.39001,-8.19553 -1.8368,-17.24219 -3.65816,-22.87433 -2.76437,-32.43335 3.17189,-33.92326 5.71481,-1.43432 10.39946,0.81307 17.91113,8.5926 6.66205,6.8996 16.82008,24.32519 19.29079,33.09234 1.23731,4.39054 4.08688,4.64694 7.73127,0.69563 9.54724,-10.35129 18.66256,-16.23912 25.14078,-16.23912 2.25468,0 2.50383,-1.13647 2.50383,-11.42099 0,-6.28154 -0.64829,-12.63234 -1.44066,-14.11288 -3.25779,-6.08724 -17.57379,-8.57177 -21.89267,-3.79947 -3.00346,3.31879 -6.05065,3.3639 -12.38645,0.18337 -2.72079,-1.36582 -8.24689,-2.91227 -12.28022,-3.43656 -17.39845,-2.26162 -128.60402,0.0577 -158,3.29522 -17.50046,1.92742 -48.49612,6.52225 -54.66666,8.10383 -2.93333,0.75185 -7.52069,1.93286 -10.19413,2.62448 -3.95785,1.02389 -5.25807,2.25038 -6.99946,6.60256 -1.17628,2.93979 -3.68169,7.78936 -5.56759,10.77682 -1.8859,2.98746 -3.08786,6.3205 -2.67103,7.40675 0.41684,1.08625 -0.14039,2.87328 -1.23829,3.97117 -1.09789,1.0979 -1.99617,2.57215 -1.99617,3.27611 0,3.08594 4.21563,2.35949 10.84443,-1.86872 8.40641,-5.36208 18.55473,-10.64698 19.20198,-9.99973 0.25006,0.25006 -3.27902,2.39047 -7.8424,4.75647 -4.56337,2.366 -10.37611,6.05784 -12.91719,8.2041 -4.31089,3.64109 -4.47251,4.05351 -2.41443,6.16131 2.0684,2.11839 2.97524,1.85491 14.56694,-4.23241 6.79867,-3.57029 15.5561,-9.40164 19.46095,-12.95856 7.26675,-6.61927 9.30062,-10.13791 4.31886,-7.47176 -1.52947,0.81855 -3.05437,1.21477 -3.38865,0.88049 -0.54258,-0.54259 9.18374,-4.9416 10.92599,-4.9416 0.38638,0 -1.12922,2.27934 -3.368,5.06521 -5.45702,6.79054 -14.49429,13.51293 -27.38848,20.37298 -5.86666,3.12123 -10.92292,5.88076 -11.23613,6.13229 -0.3132,0.25153 0.94315,2.10107 2.79189,4.11009 1.84875,2.00902 5.0275,6.05276 7.06389,8.98609 2.98834,4.30457 3.09278,4.66886 0.54144,1.88853 -1.7386,-1.89464 -5.01808,-5.78332 -7.28774,-8.64152 -3.85494,-4.85454 -4.35975,-5.09052 -7.66667,-3.58378 -1.947,0.88711 -3.54001,2.2501 -3.54001,3.02884 0,3.31278 6.36936,9.57688 13.5239,13.30042 8.9573,4.66176 9.70662,4.80738 8.61548,1.67418 -0.67737,-1.94506 -0.47924,-1.90266 1.19068,0.25484 1.1018,1.42349 2.00327,3.00043 2.00327,3.5043 0,0.50386 3.38399,3.23919 7.51997,6.07849 7.02507,4.82263 7.28831,5.19013 4,5.58427 -3.64064,0.43636 -4.36176,2.18324 -2.26749,5.49293 1.04347,1.64905 1.91973,1.60708 6.31292,-0.30236 15.21975,-6.61505 27.10127,-8.32886 27.10127,-3.90915 0,4.01986 -3.45345,7.58485 -10.58179,10.92359 l -6.83191,3.1999 5.8347,6.08659 c 9.0164,9.40564 12.36198,14.77248 10.10129,16.20404 -3.21695,2.0371 -5.45609,1.36693 -14.87068,-4.45077 -14.00444,-8.65398 -17.37921,-10.32902 -20.81487,-10.33127 -2.67714,-0.002 -2.90516,0.30893 -1.48375,2.02162 2.34543,2.82607 0.89273,13.36035 -2.9265,21.22147 l -3.08416,6.34813 3.9955,3.27125 c 6.85057,5.60879 21.807,14.076 23.26839,13.17282 2.86525,-1.77082 1.15282,-3.4534 -7.51417,-7.3832 -8.90061,-4.03573 -18.46509,-10.39223 -17.33595,-11.52138 0.32886,-0.32885 2.91827,0.9891 5.75424,2.92879 2.83598,1.93969 9.16938,5.55828 14.07423,8.04132 l 8.9179,4.51462 6.24406,-7.30876 c 3.43424,-4.01981 7.02769,-7.30875 7.98546,-7.30875 0.95777,0 3.25545,1.9346 5.10596,4.29911 l 3.36455,4.29911 4.1261,-3.05056 c 7.43438,-5.49648 13.27424,-1.4641 13.31841,9.19626 0.0186,4.49039 0.3225,4.81105 5.68632,6 7.66459,1.69894 15.99148,2.07123 12.33333,0.55141 z m 40.66667,-66.66645 c 3.3,-0.55816 7.5,-1.4109 9.33333,-1.89499 2.09738,-0.55381 1.66983,-0.11147 -1.15308,1.19297 -2.46752,1.14023 -6.66752,1.99297 -9.33333,1.89499 -4.77448,-0.17549 -4.75725,-0.19332 1.15308,-1.19297 z M 322.84433,274.62723 c 3.71494,-2.2383 6.63661,-2.82225 4.6,-0.9194 -0.69667,0.65092 -2.76667,1.57594 -4.6,2.05562 L 319.511,276.6356 Z M 436.13905,407.2431 c 3.49998,-2.21345 0.38987,-2.99003 -3.51018,-0.87647 -3.1206,1.69115 -3.31672,2.05674 -1.11788,2.08393 1.46667,0.0181 3.54929,-0.52522 4.62806,-1.20746 z M 330.011,406.12736 c 1.03537,-1.67528 -0.72931,-3.5971 -6.78658,-7.39089 -3.77128,-2.36203 -5.36717,-2.86121 -4.85155,-1.51754 0.57478,1.49786 0.1431,1.77606 -1.71342,1.10421 -1.69045,-0.61175 -1.25627,0.26566 1.36166,2.75172 2.85842,2.71443 4.73787,3.46687 7.33334,2.93592 1.91943,-0.39266 2.73988,-0.38774 1.82321,0.0109 -0.91666,0.39867 -1.66666,1.27486 -1.66666,1.94708 0,1.50077 3.59224,1.62734 4.5,0.15856 z m 24.07876,-0.12744 c 0.94067,-1.52204 -5.53789,-3.19755 -7.55158,-1.95302 -0.99514,0.61503 -0.63011,1.28471 1.06132,1.94708 3.57934,1.40168 5.62648,1.40356 6.49026,0.006 z m 27.06012,0.38555 c -0.44305,-0.44306 -1.59305,-0.49043 -2.55555,-0.10526 -1.06365,0.42563 -0.7477,0.74157 0.80555,0.80555 1.40556,0.0579 2.19306,-0.25724 1.75,-0.70029 z m -12.97222,-2.67043 c 0,-1.40603 -0.72507,-1.86442 -2.10905,-1.33333 -1.15998,0.44512 -2.39539,0.80931 -2.74535,0.80931 -0.34997,0 -0.26549,0.6 0.18773,1.33334 1.31301,2.12449 4.66667,1.54288 4.66667,-0.80932 z m 13.09241,0.0956 c 1.15126,-0.97341 -3.08563,-11.28626 -4.63679,-11.28626 -2.79391,0 -7.41438,5.31563 -6.55871,7.54547 0.42337,1.10328 0.76976,2.88408 0.76976,3.95733 0,1.52673 1.08805,1.75465 5,1.0474 2.75,-0.49718 5.19158,-1.06595 5.42574,-1.26394 z m 57.52884,-3.26309 c 6.12293,-3.12369 6.93387,-6.01044 2.03391,-7.24025 -5.9842,-1.50194 -13.98849,4.46602 -13.98849,10.42975 0,2.31194 2.4545,1.65708 11.95458,-3.1895 z m 18.49088,1.39107 c 0.53989,-3.68873 -1.82365,-2.60275 -2.84627,1.30779 -0.46059,1.76127 -0.15627,2.57719 0.83905,2.24967 0.85897,-0.28265 1.76221,-1.88351 2.00722,-3.55746 z m -95.88536,-1.96747 c 2.01806,-2.14813 2.74424,-4.10429 2.18166,-5.87683 -1.12707,-3.55109 -4.92675,-4.90789 -6.39534,-2.28367 -0.63442,1.13364 -2.63779,3.66275 -4.45194,5.62026 -2.4975,2.69484 -2.88517,3.82137 -1.59647,4.6392 3.1291,1.98576 7.20856,1.15137 10.26209,-2.09896 z m 99.87658,-2.22198 c -0.23906,-2.2791 0.57877,-4.99097 2.00886,-6.66119 3.18729,-3.72249 2.13089,-4.5866 -1.48682,-1.21619 -4.48513,4.17853 -5.21267,3.09275 -0.92585,-1.38172 2.12581,-2.21888 4.60068,-3.75205 5.49971,-3.40706 0.92652,0.35553 1.81498,-0.64037 2.05101,-2.29902 0.22902,-1.60945 1.11641,-2.92628 1.97196,-2.92628 0.85556,0 2.05556,-0.54619 2.66667,-1.21377 0.65779,-0.71856 0.34708,-0.77051 -0.76157,-0.12732 -2.217,1.28621 -1.59627,0.13884 4.6845,-8.65891 4.84266,-6.78332 9.04616,-16.42605 8.22907,-18.87731 -0.29989,-0.89968 -3.45932,3.72967 -7.02095,10.28744 -9.42115,17.34643 -11.75525,20.46931 -21.31527,28.51858 -8.58615,7.2293 -10.72336,10.3291 -4.15369,6.02448 1.89696,-1.24293 3.44902,-1.9498 3.44902,-1.5708 0,0.37899 -1.95,1.93789 -4.33333,3.46421 -3.59266,2.3008 -3.86353,2.77898 -1.58475,2.79761 1.51172,0.0124 4.03663,-1.17754 5.61091,-2.64421 3.75801,-3.50112 3.95422,-3.40863 3.23045,1.52273 -0.44431,3.02727 -0.17129,3.91525 0.98421,3.20111 0.87949,-0.54356 1.41763,-2.71813 1.19586,-4.83238 z m 18.30848,3.48428 c 2.17434,-1.64459 2.24119,-1.96438 0.4181,-2 -1.19355,-0.0233 -2.91701,0.85759 -3.82993,1.95759 -2.12743,2.5634 0.0431,2.59038 3.41183,0.0424 z m -167.41183,-4.18506 c 0,-1.43885 -0.71889,-1.86678 -2.18859,-1.30281 -1.77617,0.68158 -1.8896,0.47958 -0.60192,-1.07198 0.93381,-1.12518 1.07357,-2.22892 0.33967,-2.6825 -0.68586,-0.42388 -1.94359,0.0686 -2.79498,1.0945 -1.22178,1.47216 -0.91014,2.31194 1.47893,3.98532 3.72915,2.61199 3.76689,2.61177 3.76689,-0.0225 z m 153.33333,-0.6027 c 0,-0.77661 0.54156,-1.07733 1.20345,-0.66825 0.6619,0.40908 1.8619,-1.14505 2.66667,-3.45361 2.06167,-5.91412 1.86795,-6.21005 -1.60544,-2.45249 -3.5779,3.8706 -5.41056,7.98637 -3.55616,7.98637 0.71031,0 1.29148,-0.63541 1.29148,-1.41202 z m -148.66666,-3.92131 c -0.45323,-0.73334 -1.83864,-1.29116 -3.07869,-1.23962 -1.83799,0.0764 -1.76185,0.30547 0.41202,1.23962 3.56789,1.53317 3.61422,1.53317 2.66667,0 z m -4.4,-4.26667 c -1.24445,-1.24444 -1.95556,-1.24444 -3.2,0 -1.24445,1.24445 -0.88889,1.6 1.6,1.6 2.48889,0 2.84444,-0.35555 1.6,-1.6 z m 162.49371,-3.47869 c 0.0837,-3.20376 0.21642,-3.30242 1.23962,-0.92131 0.97987,2.28029 1.15948,2.32859 1.23962,0.33333 0.0515,-1.28333 0.69371,-2.33333 1.42705,-2.33333 0.73333,0 1.33333,-0.9 1.33333,-2 0,-1.1 0.51233,-2 1.13851,-2 0.62618,0 2.82527,-3.87417 4.88686,-8.60927 2.06159,-4.73509 4.21451,-8.32117 4.78425,-7.96905 1.28888,0.79658 4.68228,-6.52291 5.91337,-12.75501 1.24058,-6.28017 -0.87263,-4.00811 -3.498,3.76095 -1.49171,4.41431 -2.91554,6.35861 -4.86827,6.64786 -1.85965,0.27545 -3.67277,2.53073 -5.55833,6.91384 -1.53912,3.57777 -2.79839,7.18254 -2.79839,8.0106 0,0.82807 -1.8,3.02018 -4,4.87135 -2.79114,2.34859 -4,4.5626 -4,7.32595 0,4.94425 2.62966,3.72877 2.76038,-1.27591 z m -168.09371,1.07869 c 0,-1.46667 -0.54691,-2.66667 -1.21536,-2.66667 -0.96574,0 -1.06434,2.24109 -0.21999,5 0.4381,1.43148 1.43535,-0.18967 1.43535,-2.33333 z m -9.33333,-2.07869 c 0,-1.14328 -0.60979,-1.70182 -1.35509,-1.2412 -0.74529,0.46062 -1.00988,1.39603 -0.58797,2.07869 1.14298,1.84939 1.94306,1.50455 1.94306,-0.83749 z m -9.33334,-1.7658 c 0,-1.38982 -1.19078,-2.82255 -2.66666,-3.20851 -3.24466,-0.84849 -3.37246,0.0631 -0.46002,3.28135 2.76364,3.05379 3.12668,3.04533 3.12668,-0.0728 z m -36.947,-1.48884 c -0.66893,-2.55801 -3.053,-3.80744 -3.053,-1.6 0,0.92883 2.71865,4.26666 3.47518,4.26666 0.15134,0 -0.0386,-1.2 -0.42218,-2.66666 z m 31.4436,0.33333 c -2.4198,-3.08548 -4.13839,-4.28811 -6.16326,-4.31291 -2.91195,-0.0357 -1.79878,2.43115 2,4.43205 5.05794,2.66414 6.31778,2.62808 4.16326,-0.11914 z m 25.5034,-0.33333 c 0,-0.73333 -0.48609,-1.33333 -1.08021,-1.33333 -2.078,0 -9.58645,-8.33761 -9.58645,-10.64507 0,-1.28075 1.2,-3.8542 2.66666,-5.71876 1.46667,-1.86457 2.66667,-3.70776 2.66667,-4.09599 0,-1.47891 -10.09356,0.88872 -12,2.81483 -1.1,1.11135 -1.31798,1.64272 -0.48441,1.18082 0.83358,-0.46189 2.33358,0.20359 3.33333,1.47885 1.62368,2.0711 1.5813,2.1338 -0.39688,0.58724 -1.68935,-1.32074 -2.44692,-1.35556 -3.19398,-0.14679 -0.6093,0.98587 2.24271,4.51503 7.54796,9.34007 8.56344,7.78831 10.52731,9.008 10.52731,6.53813 z m 10.02081,-8.37259 c 1.88365,-5.06173 2.06273,-7.05018 0.87058,-9.66666 -2.28803,-5.02169 -4.22305,-3.93875 -4.2394,2.37258 -0.008,3.11667 -0.38621,8.06667 -0.84031,11 -1.05017,6.78372 0.96624,5.00837 4.20913,-3.70592 z m -24.03413,0.35868 c -4.60708,-4.80875 -6.4526,-5.13417 -4.47265,-0.78864 1.35596,2.976 6.43385,6.45433 7.7221,5.2896 0.31321,-0.28318 -1.14905,-2.30861 -3.24945,-4.50096 z m 15.34666,3.34724 c 0,-1.1 -0.56459,-2 -1.25465,-2 -1.6813,0 -2.88546,2.08212 -1.82022,3.14736 1.50158,1.50158 3.07487,0.91452 3.07487,-1.14736 z m 170.65341,-6.66666 c 0,-0.73334 -1.47544,0.46666 -3.27876,2.66666 -1.80331,2.2 -3.27876,4.6 -3.27876,5.33334 0,0.73333 1.47545,-0.46667 3.27876,-2.66667 1.80332,-2.2 3.27876,-4.6 3.27876,-5.33333 z m -223.98675,3.33333 c -1.05752,-0.65359 -2.22277,-0.88834 -2.58944,-0.52167 -0.36666,0.36666 0.19859,1.20142 1.25611,1.855 1.05753,0.65359 2.22277,0.88834 2.58944,0.52167 0.36667,-0.36666 -0.19858,-1.20142 -1.25611,-1.855 z m 26.66667,-1.33333 c 0,-0.73334 -0.93541,-1.33334 -2.07869,-1.33334 -1.14328,0 -1.70787,0.6 -1.25464,1.33334 0.45322,0.73333 1.38863,1.33333 2.07869,1.33333 0.69005,0 1.25464,-0.6 1.25464,-1.33333 z m 27.11498,-7.74515 c -0.46823,-3.95345 -1.49247,-6.92152 -2.38851,-6.92152 -1.60055,0 -7.39314,9.22012 -7.39314,11.76772 0,1.04812 8.07099,2.73571 10.3007,2.1538 0.16538,-0.0432 -0.0682,-3.19316 -0.51905,-7 z m 44.88502,6.61186 c 0,-1.96762 -7.42663,-11.48053 -11.90383,-15.24785 -4.83709,-4.07015 -5.85048,-4.22273 -14.15585,-2.13141 -5.6221,1.41566 -6.99657,3.83174 -2.19497,3.85839 2.30969,0.0128 12.04153,5.51231 20.11849,11.36902 4.56,3.30652 8.13616,4.25234 8.13616,2.15185 z m -76.7646,-3.57104 c 2.53898,-3.87498 1.79559,-5.96234 -2.12341,-5.96234 -2.02127,0 -2.51953,0.60615 -1.91804,2.33333 0.7739,2.22222 0.72607,2.22222 -1.00434,0 -2.38205,-3.05908 -3.52294,-2.95113 -3.52294,0.33334 0,1.46666 0.6,2.66666 1.33333,2.66666 0.73333,0 1.33333,0.9 1.33333,2 0,3.14515 3.47133,2.33879 5.90207,-1.37099 z m -9.90207,-5.29567 c 0,-1.4493 -1.49022,-2 -5.41202,-2 -3.89099,0 -5.17475,0.46841 -4.56779,1.66666 0.46433,0.91667 -0.0941,0.51047 -1.24087,-0.90266 -2.29331,-2.8259 -2.37293,-2.79742 -4.70674,1.68352 -2.03705,3.91117 -1.13765,4.90689 2.42343,2.68296 2.39066,-1.493 3.11788,-1.33218 5.49006,1.21406 2.72509,2.92504 2.74334,2.92605 5.37416,0.29523 1.45187,-1.45187 2.63977,-3.53977 2.63977,-4.63977 z m -9.33333,5.41202 c 0,-1.4073 -2.55882,-1.99855 -3.31989,-0.76711 -0.46062,0.7453 0.0979,1.35509 1.2412,1.35509 1.14328,0 2.07869,-0.26459 2.07869,-0.58798 z m 29.31292,-4.41202 c 0.0112,-0.91667 -0.64378,-1.66667 -1.45557,-1.66667 -0.81179,0 -1.14235,0.86944 -0.73457,1.9321 0.53002,1.38122 0.0955,1.6902 -1.52402,1.08369 -1.99919,-0.7487 -2.04422,-0.57661 -0.38312,1.46435 1.48091,1.81957 2.11629,1.94388 2.97958,0.58297 0.6035,-0.95138 1.10647,-2.47978 1.1177,-3.39644 z m -71.99779,-2.92151 c -0.0317,-3.61474 -1.58099,-8.07849 -2.80397,-8.07849 -0.6478,0 -1.15874,3.45 -1.13542,7.66666 0.0389,7.03141 0.20461,7.45221 2,5.0785 1.07668,-1.4235 1.9494,-3.5235 1.93939,-4.66667 z m 37.65711,-2.70501 c 1.26806,-2.28773 4.08465,-4.7797 6.25908,-5.53771 3.28262,-1.14433 4.02267,-2.20893 4.36109,-6.27366 0.52073,-6.2543 -1.79255,-10.90622 -6.5248,-13.12116 -2.3748,-1.11154 -2.68296,-1.49021 -0.84649,-1.04016 1.58829,0.38922 3.33099,-0.009 3.87268,-0.8859 0.59377,-0.96073 0.41929,-1.24402 -0.43935,-0.71335 -0.79293,0.49006 -2.17548,-0.81693 -3.11903,-2.94855 -2.13288,-4.81851 -8.39787,-7.22631 -15.74541,-6.0514 l -5.48053,0.87638 0.59203,7.28406 c 0.39225,4.82599 1.3649,7.8492 2.8823,8.95874 1.25964,0.92108 1.91708,2.27849 1.46098,3.01647 -0.4561,0.73799 0.7109,2.77901 2.59333,4.53561 5.13794,4.7945 9.1656,10.7007 6.63497,9.72961 -2.37973,-0.91319 -4.29203,4.75424 -2.85499,8.46122 0.84283,2.17417 1.01475,2.1813 2.47713,0.10281 0.86429,-1.22842 2.60894,-4.10528 3.87701,-6.39301 z M 243.511,325.78475 c -2.93334,-1.38808 -4.43334,-2.51436 -3.33334,-2.50285 1.1,0.0115 4.1,1.17062 6.66667,2.57581 5.98776,3.27816 3.63979,3.22677 -3.33333,-0.073 z m 69.5497,33.07296 c -0.36988,-0.91666 -0.67251,-0.16666 -0.67251,1.66667 0,1.83333 0.30263,2.58333 0.67251,1.66667 0.36989,-0.91667 0.36989,-2.41667 0,-3.33334 z M 276.98698,357.082 c -0.44512,-1.15998 -0.80932,-2.35998 -0.80932,-2.66667 0,-0.30669 -1.2,-0.55762 -2.66666,-0.55762 -3.28087,0 -3.55071,3.57345 -0.33334,4.41423 4.17585,1.09127 4.63024,0.94933 3.80932,-1.18994 z m 7.21742,-1.19207 c -0.92762,-1.11772 -2.66312,-2.01226 -3.85666,-1.98786 -1.67851,0.0343 -1.44772,0.64592 1.01881,2.70001 3.54,2.94805 5.47298,2.46299 2.83785,-0.71215 z m -39.95532,-2.43722 c 3.45854,-0.90443 3.27102,-2.49531 -0.73808,-6.26166 l -3.33334,-3.13151 0.15467,7.23242 c 0.0851,3.97783 0.41721,6.24399 0.73808,5.03592 0.32088,-1.20808 1.75128,-2.5019 3.17867,-2.87517 z m 23.26192,1.73834 c -2.7702,-3.06103 -7.65115,-3.49687 -9.82518,-0.87733 -2.1611,2.60397 -0.50225,3.54399 6.25405,3.54399 5.89997,0 5.95037,-0.0376 3.57113,-2.66666 z m 31.33333,1.6 c 0,-3.45366 -6.25061,-5.36593 -11.25831,-3.44429 -1.65876,0.63652 -1.79717,1.23917 -0.61246,2.66666 1.61025,1.94024 11.87077,2.61238 11.87077,0.77763 z m 193.15737,-5.48288 c 0.83672,-2.50225 1.26285,-4.80801 0.94695,-5.12391 -0.86861,-0.86861 -4.77099,7.20764 -4.77099,9.87391 0,3.24203 1.96973,0.79534 3.82404,-4.75 z M 330.17766,349.1605 c 0.73334,-0.36318 -1.06666,-0.38228 -4,-0.0425 -4.90611,0.56838 -5.12601,0.46255 -2.74516,-1.32123 3.05515,-2.28897 1.74191,-2.56637 -2.18929,-0.46246 -2.21305,1.18439 -2.39362,1.70814 -0.91235,2.64625 1.37778,0.87256 1.08491,1.17479 -1.1532,1.19002 -1.65,0.0112 -3,0.56169 -3,1.22326 0,1.03492 10.08415,-1.29408 14,-3.23339 z m 152.5873,-0.0255 c 1.05635,-1.03428 1.5148,-2.28635 1.01878,-2.78237 -1.66456,-1.66455 -9.32211,-0.68371 -11.47504,1.46982 -1.88187,1.88241 -1.89719,2.28346 -0.13104,3.43003 2.41852,1.57009 7.95122,0.46354 10.5873,-2.11748 z m -183.92157,0.44975 c 0.002,-1.65439 -8.97195,-2.68869 -13.56149,-1.56311 l -4.43757,1.0883 6,0.75882 c 7.79708,0.9861 11.99788,0.88667 11.99906,-0.28401 z m -1.22134,-8.45931 c -14.61523,-15.38603 -16.04407,-20.8569 -3.97032,-15.20186 6.61862,3.1 11.52818,8.55552 17.33921,19.26742 1.19346,2.2 2.39871,3.91182 2.67833,3.80405 4.39093,-1.69239 10.50839,-5.21497 10.50839,-6.051 0,-0.59751 -2.4,-1.08639 -5.33333,-1.08639 -2.93333,0 -5.33333,-0.6 -5.33333,-1.33333 0,-0.73333 -1.08643,-2.41976 -2.41429,-3.74762 -1.32786,-1.32786 -3.27786,-3.59805 -4.33334,-5.04486 -1.05547,-1.44681 -5.81904,-4.35497 -10.58571,-6.46257 -4.76666,-2.1076 -11.00422,-5.30021 -13.86124,-7.0947 l -5.19458,-3.2627 1.03238,4.47289 c 0.56781,2.46009 1.16745,5.67289 1.33254,7.13956 0.16508,1.46667 1.0275,5.27723 1.91649,8.46792 2.03558,7.30595 1.09217,8.74228 -1.04871,1.59665 -1.97957,-6.6072 -2.77406,-7.09173 -6.57791,-4.01156 l -3.05437,2.47328 3.57377,5.73685 c 1.96557,3.15527 3.78936,5.98318 4.05286,6.28424 0.2635,0.30106 1.68277,-0.54193 3.15393,-1.87332 1.51417,-1.3703 2.67484,-1.75246 2.67484,-0.88071 0,0.88443 2.12844,1.55487 5,1.57495 2.75,0.0192 7.4,1.17066 10.33334,2.55873 2.93333,1.38808 5.85961,2.57234 6.50284,2.63171 0.64322,0.0594 -3.13308,-4.42157 -8.39179,-9.95763 z m -66.29555,6.73222 c -0.42211,-1.1 -1.37675,-2 -2.12141,-2 -0.78041,0 -0.65082,0.84721 0.30591,2 0.91292,1.1 1.86755,2 2.12141,2 0.25386,0 0.1162,-0.9 -0.30591,-2 z m 40.85116,-0.60393 c 0,-2.13953 -3.03092,-8.06273 -4.12572,-8.06273 -1.03384,0 -0.3274,6.18813 0.94066,8.2399 0.92968,1.50425 3.18506,1.3788 3.18506,-0.17717 z m 32.70818,-8.57458 c -3.19162,-4.98929 -6.58063,-8.38921 -10.20581,-10.23864 -2.98509,-1.52288 -5.73642,-2.4599 -6.11405,-2.08227 -1.12192,1.12191 9.11094,12.85008 12.93883,14.82956 1.94356,1.00505 4.32554,2.78143 5.2933,3.9475 3.78524,4.56094 2.62113,0.63071 -1.91227,-6.45615 z m 41.08311,5.32737 c 17.62189,-7.79323 6.35227,-9.88519 -12.94273,-2.40253 -5.14887,1.99674 -5.14987,1.99862 -2,3.74513 4.46433,2.47534 6.78021,2.26726 14.94273,-1.3426 z m -129.5642,-5.14886 c 1.32146,-2.56935 -0.82474,-3.18112 -4.03141,-1.14915 -1.47923,0.93735 -1.49904,1.7138 -0.10993,4.30937 1.27863,2.38915 1.84738,2.67613 2.31783,1.16956 0.34289,-1.09804 1.16346,-3.04644 1.82351,-4.32978 z m 269.10624,3 c 0,-0.73333 -0.26459,-1.33333 -0.58798,-1.33333 -0.32338,0 -0.95879,0.6 -1.41202,1.33333 -0.45322,0.73334 -0.18863,1.33334 0.58798,1.33334 0.77661,0 1.41202,-0.6 1.41202,-1.33334 z m 5.33334,0 c 0,-0.73333 -0.6,-1.33333 -1.33334,-1.33333 -0.73333,0 -1.33333,0.6 -1.33333,1.33333 0,0.73334 0.6,1.33334 1.33333,1.33334 0.73334,0 1.33334,-0.6 1.33334,-1.33334 z M 322.7232,338.191 c -1.57765,-2.49225 -14.54554,-8.85812 -14.54554,-7.14033 0,0.56267 1.65,1.85604 3.66667,2.87415 2.01667,1.01811 4.74004,2.9195 6.05194,4.22531 3.24598,3.23091 6.86571,3.26156 4.82693,0.0409 z m 150.12113,1 c -0.45323,-0.73334 -2.13864,-1.29117 -3.74536,-1.23962 -2.81649,0.0904 -2.82563,0.13483 -0.25464,1.23962 3.66997,1.57704 4.97466,1.57704 4,0 z m -261.33333,-4 c 0.45322,-0.73334 0.18863,-1.33334 -0.58798,-1.33334 -0.77661,0 -1.41202,0.6 -1.41202,1.33334 0,0.73333 0.26459,1.33333 0.58798,1.33333 0.32338,0 0.95879,-0.6 1.41202,-1.33333 z m 273.22499,-2.69167 c 3.23153,-3.23153 -2.29279,-4.12695 -27.02406,-4.38026 -14.03703,-0.14377 -25.52466,-0.65755 -25.52807,-1.14172 -0.003,-0.48416 5.2438,-1.2637 11.66047,-1.73229 6.41666,-0.46859 13.16666,-1.22088 15,-1.67174 1.83333,-0.45087 3.93333,-0.62551 4.66666,-0.38811 1.1854,0.38376 11.29854,1.04619 22.66667,1.48471 2.2,0.0849 6.1,9e-5 8.66667,-0.18839 2.56666,-0.18847 8.26666,0.34998 12.66666,1.19657 4.4,0.84658 18.5,1.8179 31.33333,2.15849 12.83334,0.34058 32.43039,0.9841 43.54902,1.43003 27.31687,1.0956 28.96494,0.12451 22.2664,-13.11995 -7.19119,-14.21854 -20.51074,-32.21164 -25.91357,-35.00609 -6.89897,-3.56828 -16.38483,0.92341 -25.84106,12.23609 -5.62705,6.73175 -9.60206,7.32158 -12.22729,1.81433 -0.87392,-1.83334 -4.02156,-8.47945 -6.99475,-14.76915 -8.00623,-16.93696 -23.50922,-31.82663 -28.18146,-27.06656 -2.32571,2.36942 -1.71392,17.59067 1.31742,32.77725 2.5571,12.8107 2.80931,15.97716 1.40714,17.66667 -2.56468,3.09026 -4.85025,2.53178 -10.48973,-2.56315 -3.78614,-3.42055 -5.50498,-4.2322 -6.614,-3.12318 -1.10902,1.10902 -2.08611,1.0107 -3.75977,-0.37831 -1.24374,-1.03221 -3.2953,-1.70158 -4.55903,-1.48749 -2.8912,0.4898 -4.37249,-3.12603 -2.6212,-6.39835 1.6755,-3.1307 1.73232,-7.06465 0.0874,-6.04801 -0.68266,0.42191 -1.61807,0.15732 -2.07869,-0.58797 -1.68903,-2.73292 -4.8652,-1.23776 -6.70024,3.1541 -1.92656,4.61092 -1.34385,9.20516 1.94762,15.35533 0.85447,1.59658 1.16126,4.13896 0.68176,5.64973 -1.15703,3.64548 -6.06391,2.89312 -19.27591,-2.95552 -9.48556,-4.19903 -10.82312,-4.42901 -26,-4.47049 -15.95563,-0.0436 -16.03805,-0.0275 -29.71997,5.78793 -12.50514,5.3153 -16.28003,8.09987 -16.28003,12.00908 0,3.1875 11.21297,6.95228 26.39568,8.86239 8.58238,1.07973 21.4272,2.85322 28.54406,3.94109 7.11686,1.08787 16.11686,2.01252 20,2.05478 3.88314,0.0423 9.46026,0.59424 12.39359,1.22663 5.92699,1.27777 12.5571,0.67276 14.55833,-1.32847 z m -249.56532,-1.975 c -0.35047,-1.83333 -0.86727,-3.33333 -1.14844,-3.33333 -0.28118,0 -0.51123,1.5 -0.51123,3.33333 0,1.83333 0.51679,3.33333 1.14843,3.33333 0.63165,0 0.8617,-1.5 0.51124,-3.33333 z m 90.34033,2.32073 c 0,-0.55693 -1.2,-1.76202 -2.66667,-2.67797 -3.02084,-1.88654 -3.47544,-1.11549 -1,1.69613 1.82908,2.07748 3.66667,2.56954 3.66667,0.98184 z m -6.70908,-1.9874 c -0.0755,-2.96841 -3.13402,-5.73697 -11.04102,-9.99433 -4.26255,-2.29509 -7.54689,-3.76026 -7.29854,-3.25594 4.23001,8.58984 5.81957,10.54421 10.14528,12.47368 6.09119,2.71696 8.24886,2.92145 8.19428,0.77659 z m -46.56064,-3.72885 c 3.3576,-3.28216 3.98925,-3.53819 3.28945,-1.33333 -0.63863,2.01216 -0.27639,2.72885 1.37926,2.72885 1.69275,0 2.03511,-0.73834 1.39108,-3 -0.46985,-1.65 -1.21483,-4.65 -1.6555,-6.66667 -0.8807,-4.03028 -3.71194,-4.8932 -5.00435,-1.52524 -0.58754,1.53111 -1.77697,1.90168 -4.17336,1.30022 -4.93862,-1.23951 -6.57013,3.83685 -2.85021,8.86831 1.50049,2.02953 2.89465,3.69005 3.09812,3.69005 0.20347,0 2.23995,-1.82799 4.52551,-4.06219 z m 29.21113,-4.15695 c -2.45372,-4.75216 -6.83214,-9.11186 -9.17383,-9.13461 -1.71454,-0.0167 -1.7625,-0.23476 -0.26079,-1.1859 1.52046,-0.96301 1.40465,-1.74452 -0.66667,-4.49875 l -2.50679,-3.33327 -5.04709,2.57029 c -2.7759,1.41366 -4.69474,3.14041 -4.26409,3.83723 0.43179,0.69864 -0.14516,0.91076 -1.28624,0.47289 -1.13808,-0.43673 -2.06925,-0.12985 -2.06925,0.68194 0,0.81179 0.70276,1.47598 1.56168,1.47598 0.85893,0 2.64662,0.98186 3.97266,2.18191 2.5728,2.32835 20.16636,11.11989 20.90702,10.44729 0.24275,-0.22045 -0.28223,-1.80219 -1.16661,-3.515 z m -18.24937,-11.37152 c 1.29729,-0.33806 3.09729,-0.31582 4,0.0494 0.90271,0.36523 -0.15871,0.64182 -2.35871,0.61465 -2.2,-0.0272 -2.93858,-0.326 -1.64129,-0.66406 z m -40.17695,4.09367 c 4.13943,0.82789 7.81824,-0.10331 7.81824,-1.979 0,-0.65487 -4.17019,-1.19068 -9.26708,-1.19068 -7.41917,0 -9.53808,0.46528 -10.62612,2.33333 -1.2793,2.19642 -1.36142,2.19791 -1.39959,0.0254 -0.0539,-3.0685 4.28499,-4.01971 15.84139,-3.4729 5.20158,0.24612 9.44584,0.14749 9.43171,-0.21917 -0.0141,-0.36667 -3.95587,-3.96667 -8.75941,-8 -8.37138,-7.02911 -19.54728,-19.01017 -20.6812,-22.17118 -0.35788,-0.99765 -1.57799,-1.1142 -3.62168,-0.34597 -2.95679,1.11148 -3.04457,1.55172 -2.16105,10.83784 0.50651,5.32362 1.17881,10.12931 1.494,10.67931 1.06449,1.8575 3.08157,1.01626 3.19697,-1.33334 0.14327,-2.91696 2.41475,4.13118 3.26964,10.14527 0.35013,2.46323 1.66361,6.21717 2.91883,8.34209 l 2.28222,3.86349 3.23703,-4.13616 c 2.66434,-3.4044 3.90737,-4.00208 7.0261,-3.37834 z m 18.48491,4.83032 c 0,-1.46667 -0.6,-2.66667 -1.33334,-2.66667 -0.73333,0 -1.33333,1.2 -1.33333,2.66667 0,1.46667 0.6,2.66667 1.33333,2.66667 0.73334,0 1.33334,-1.2 1.33334,-2.66667 z m -5.33334,-1.33333 c 0,-0.73334 -1.65,-1.32415 -3.66666,-1.31292 -2.85725,0.0159 -3.22517,0.30574 -1.66667,1.31292 2.60871,1.68588 5.33333,1.68588 5.33333,0 z m -14,-1.33334 c 0.45323,-0.73333 0.22405,-1.33333 -0.50928,-1.33333 -0.73334,0 -1.70416,0.6 -2.15738,1.33333 -0.45323,0.73334 -0.22405,1.33334 0.50929,1.33334 0.73333,0 1.70415,-0.6 2.15737,-1.33334 z m 25.83526,-8.83755 c 0.83018,-1.82205 2.08435,-2.95749 2.78704,-2.5232 1.89113,1.16878 12.97523,-14.74248 13.97229,-20.05726 0.47277,-2.52009 1.58239,-4.6099 2.46583,-4.64401 1.71456,-0.0662 13.60173,-22.38693 12.50599,-23.48268 -0.68532,-0.68532 -13.99286,16.77982 -16.84267,22.10473 -1.35323,2.52854 -1.33038,3.31969 0.12179,4.21718 1.2557,0.77607 0.92744,1.03996 -1.1033,0.88699 -1.58995,-0.11977 -2.62235,-0.65215 -2.29422,-1.18308 0.32813,-0.53093 -0.74694,-1.90638 -2.38904,-3.05655 -1.64211,-1.15018 -2.37215,-2.09123 -1.62231,-2.09123 0.74984,0 2.15834,0.75 3.13001,1.66666 1.38162,1.30342 1.8971,1.3117 2.36512,0.038 0.32915,-0.89577 3.55415,-5.68293 7.16666,-10.63811 3.61252,-4.95519 6.56822,-9.39205 6.56822,-9.85969 0,-0.46765 -3.15,-0.0586 -7,0.909 -3.85,0.9676 -13,3.25795 -20.33333,5.08966 -29.26604,7.31003 -38.69897,10.55152 -39.91313,13.71557 -0.5416,1.41139 1.54313,4.63161 6.21577,9.60129 8.56484,9.10932 22.82719,21.47764 24.76662,21.47764 0.77973,0 1.83959,-1.32924 2.35522,-2.95386 0.76412,-2.40754 -0.26732,-4.05085 -5.57682,-8.88512 -3.58288,-3.2622 -10.05735,-8.23296 -14.38771,-11.04614 -4.33036,-2.81319 -7.32235,-5.11488 -6.64887,-5.11488 2.00301,0 14.01564,8.5159 21.42276,15.18685 6.79161,6.11662 6.93122,6.17084 8.84699,3.43569 1.07057,-1.52845 3.95227,-4.25882 6.40378,-6.06749 2.45151,-1.80867 5.1991,-4.62346 6.10576,-6.2551 0.90666,-1.63164 1.66973,-2.19551 1.69571,-1.25304 0.0684,2.47949 -4.05318,8.38173 -5.31039,7.60473 -2.03956,-1.26052 -8.22791,7.65517 -7.59856,10.9474 0.32921,1.7222 0.079,3.45236 -0.55595,3.8448 -0.63498,0.39245 -1.15452,0.0427 -1.15452,-0.77718 0,-0.81989 -0.6,-1.11989 -1.33333,-0.66666 -2.11915,1.3097 -1.55237,2.74935 1.16292,2.95389 1.47859,0.11138 3.1116,-1.16252 4.00567,-3.12478 z m 2.87224,-6.49578 c 0,-0.73333 0.58163,-2.23333 1.2925,-3.33333 0.71088,-1.1 1.2925,-1.4 1.2925,-0.66667 0,0.73333 -0.58162,2.23333 -1.2925,3.33333 -0.71087,1.1 -1.2925,1.4 -1.2925,0.66667 z m -0.60988,-16.66667 c 0.49039,-1.83333 1.44769,-4.23333 2.12733,-5.33333 0.85881,-1.38998 0.96377,-0.9833 0.3441,1.33333 -0.49039,1.83334 -1.44769,4.23334 -2.12733,5.33334 -0.85881,1.38998 -0.96376,0.9833 -0.3441,-1.33334 z m 7.9242,20.33334 c 3.62936,-4.12354 4.18471,-5.91805 1.51434,-4.89333 -2.46707,0.9467 -7.9625,8.55999 -6.17879,8.55999 0.79047,0 2.88947,-1.65 4.66445,-3.66666 z m 7.61997,-1.9023 c 1.63008,-1.24588 1.93942,-2.35019 1.05265,-3.75787 -1.07763,-1.71066 -1.55025,-1.61607 -3.33097,0.66666 -1.14134,1.4631 -2.71045,3.75559 -3.48691,5.09443 -1.22355,2.10976 -1.08724,2.25609 1.02252,1.0977 1.33884,-0.73511 3.47306,-2.13052 4.74271,-3.10092 z m 6.44587,-3.81128 c 3.08963,-1.65353 3.33421,-3.74699 0.56203,-4.81077 -2.63227,-1.0101 -6.03011,1.8502 -5.09445,4.2885 0.87151,2.27111 1.19503,2.30839 4.53242,0.52227 z m -8.39321,-3.70309 c 0.79994,-2.39981 -1.95601,-1.89554 -2.88604,0.52808 -0.4983,1.29855 -0.20031,1.90811 0.77402,1.58333 0.87133,-0.29044 1.82174,-1.24058 2.11202,-2.11141 z m 5.04402,-3.03284 c 0.49272,-0.79723 0.20314,-2.14222 -0.6435,-2.98886 -1.16357,-1.16357 -1.8298,-1.06938 -2.72918,0.38585 -1.27082,2.05623 -0.63,4.05252 1.30088,4.05252 0.64677,0 1.57909,-0.65228 2.0718,-1.44951 z m -40.38887,-27.85684 c 15.95894,-4.38457 33.65894,-9.56366 39.33333,-11.5091 5.67439,-1.94543 15.11707,-3.99266 20.98374,-4.54939 5.86667,-0.55673 21.16667,-2.56043 34,-4.45265 45.14712,-6.65677 84.56619,-9.16897 140.66666,-8.96477 47.96236,0.17457 85.55449,2.64336 90.60113,5.95004 1.81778,1.19105 3.61075,2.16555 3.98439,2.16555 1.61479,0 5.23082,-9.11388 5.55465,-14 0.1944,-2.93333 1.04051,-11.01681 1.88023,-17.96327 1.72503,-14.27015 0.92698,-22.78667 -2.4124,-25.74413 -6.15273,-5.44904 -29.33112,-8.95602 -59.20638,-8.95815 -16.84331,-0.001 -45.01446,3.16268 -49.49064,5.55826 -1.51961,0.81327 -9.2796,1.68332 -17.24442,1.93345 -7.96482,0.25012 -22.39814,1.39798 -32.07403,2.55079 -9.67589,1.15281 -22.99253,2.66974 -29.59253,3.37096 -19.27901,2.04831 -67.12712,11.82234 -78.66666,16.0694 -3.66667,1.34949 -12.96667,4.00748 -20.66667,5.90665 -30.91619,7.62533 -80.48815,27.71221 -87.49335,35.45287 -2.18911,2.41893 -2.18484,2.9434 0.083,10.1867 3.33913,10.66514 5.76758,14.96989 8.44463,14.96927 1.26451,-3e-4 15.35641,-3.58791 31.31536,-7.97248 z M 371.51099,191.8165 c 7.33334,-1.07742 16.03334,-2.51823 19.33334,-3.20179 3.3,-0.68355 15,-2.20945 26,-3.39087 24.43356,-2.62422 72.78858,-9.02203 72.25113,-9.55948 -1.01931,-1.01931 -9.79829,-0.60575 -26.25113,1.23666 -9.9,1.10861 -18.9,2.07264 -20,2.14229 -17.71115,1.12142 -88.33373,12.66023 -92,15.0316 -1.40098,0.90616 -0.60229,1.05504 2.66666,0.49708 2.56667,-0.4381 10.66667,-1.67806 18,-2.75549 z m 328.82515,234.26373 c -2.41478,-3.39125 -3.47668,-3.96771 -5.40644,-2.93493 -1.32078,0.70686 -2.77389,0.91274 -3.22913,0.4575 -0.45524,-0.45524 -27.62276,-1.02706 -60.37226,-1.27071 -53.5944,-0.39873 -60.02452,-0.67774 -64.34761,-2.79205 -6.75612,-3.30425 -6.52833,-7.21925 0.53029,-9.11405 2.93333,-0.78742 8.19641,-2.77128 11.69572,-4.40858 4.19432,-1.96248 8.24817,-2.83768 11.89637,-2.56833 8.03669,0.59336 7.83167,3.20185 -0.3276,4.16819 -3.7566,0.44492 -9.51379,2.30884 -12.79376,4.14205 -4.36642,2.44044 -7.10276,3.12228 -10.21715,2.54592 -4.1247,-0.76333 -4.18145,-0.71134 -1.87315,1.71595 2.00787,2.11137 4.53763,2.52655 16.16341,2.65276 7.58063,0.0823 14.45943,0.5677 15.28623,1.07869 0.82679,0.51099 1.50309,0.44366 1.50287,-0.14962 -2.1e-4,-0.59328 2.84979,-1.00794 6.33333,-0.92146 41.2395,1.02372 76.54353,-0.31886 78.06665,-2.96881 0.58644,-1.0203 2.77224,-1.85509 4.85735,-1.85509 2.13987,0 4.12536,-0.8711 4.55856,-2 1.21164,-3.15746 7.30908,-2.38337 10.58179,1.34339 2.61964,2.98309 3.43895,3.20288 7.60271,2.03952 2.56667,-0.71713 9.31667,-1.67284 15,-2.12381 5.68333,-0.45098 10.33333,-1.25592 10.33333,-1.78878 0,-0.53286 -1.84753,-2.33477 -4.10562,-4.00425 -2.93269,-2.16823 -6.84315,-3.29691 -13.6878,-3.9507 -9.77525,-0.93373 -13.60649,-0.51277 -28.87324,3.17251 -10.17902,2.45713 -14.8122,2.56736 -16.16128,0.38449 -1.06246,-1.71908 1.54009,-7.59404 4.81472,-10.86867 2.92091,-2.9209 3.83427,-9.10287 1.75831,-11.90081 -2.00436,-2.70143 -10.46088,-4.47063 -14.02017,-2.93317 -1.31537,0.56818 -3.05163,1.17614 -3.85836,1.35102 -5.21047,1.12951 -16.53322,11.68692 -16.53322,15.41569 0,0.60669 -1.23835,1.76583 -2.7519,2.57585 -3.91043,2.0928 -6.1012,-0.19521 -6.89031,-7.19613 -0.35798,-3.17598 -2.46126,-9.31637 -4.67395,-13.64532 -3.84873,-7.5297 -4.23584,-7.86394 -8.93192,-7.71179 -8.93186,0.28939 -18.08525,12.329 -18.08525,23.78784 0,4.70631 -0.48359,6.05312 -2.17341,6.05312 -1.7694,0 -2.0533,-1.05334 -1.52731,-5.66667 1.40196,-12.29603 9.98126,-24.07865 20.10118,-27.60647 3.49624,-1.2188 4.30224,-0.92329 7.85485,2.87979 5.52561,5.91518 10.41135,16.09008 10.41135,21.68236 0,6.06087 1.82979,5.97006 5.82374,-0.28901 4.80536,-7.53066 8.92362,-10.7612 17.61927,-13.82134 19.27822,-6.78431 30.95679,2.91991 20.64506,17.15484 -2.15157,2.97015 -4.56135,5.80163 -5.35508,6.29218 -0.79374,0.49055 -1.15474,1.35858 -0.80223,1.92895 0.66177,1.07077 4.91252,0.44369 22.06924,-3.25571 18.15071,-3.91372 35.18172,-0.5238 40.85291,8.13153 3.30192,5.03937 0.44671,7.12756 -10.92643,7.99116 -18.57481,1.41044 -20.59315,1.86718 -20.59315,4.66009 0,1.42173 -0.50831,2.58497 -1.12958,2.58497 -0.62127,0 -1.70948,1.29961 -2.41825,2.88802 -1.26174,2.82766 -1.35148,2.79982 -4.29368,-1.33212 z m -479.39419,-74.8892 c 0.49039,-1.83334 1.44769,-4.23334 2.12733,-5.33334 0.85881,-1.38998 0.96376,-0.9833 0.3441,1.33334 -0.49039,1.83333 -1.44769,4.23333 -2.12733,5.33333 -0.85881,1.38998 -0.96377,0.9833 -0.3441,-1.33333 z m -17.31808,-6.33334 c -1.1184,-5.3558 -1.33536,-18.88862 -0.31911,-19.90487 0.4801,-0.4801 0.8729,0.1271 0.8729,1.34932 0,1.40959 1.09706,2.22969 3,2.24264 1.65,0.0112 3.9,0.59422 5,1.29554 1.37337,0.87561 0.43869,1.02429 -2.98318,0.47452 l -4.98318,-0.8006 0.41958,9.50506 c 0.23076,5.22778 0.27087,9.50506 0.0891,9.50506 -0.18175,0 -0.67501,-1.65 -1.09613,-3.66667 z m -22.77954,-15 c -0.45322,-0.73333 -0.18863,-1.33333 0.58798,-1.33333 0.77661,0 1.41202,0.6 1.41202,1.33333 0,0.73334 -0.26459,1.33334 -0.58798,1.33334 -0.32338,0 -0.95879,-0.6 -1.41202,-1.33334 z m 529.99999,-37.41595 c -21.93659,-4.03015 -31.4468,-5.20691 -42.24653,-5.22743 -14.55079,-0.0277 -18.24904,-1.20233 -21.09164,-6.69931 -2.72373,-5.26711 -1.74364,-8.18233 4.30089,-12.79272 4.54779,-3.46877 5.71568,-3.71033 18.28105,-3.78122 8.60159,-0.0485 14.50045,0.53839 16.4229,1.63403 2.914,1.66075 3.00477,1.53643 3.16666,-4.33715 0.0917,-3.3258 0.31667,-6.64691 0.5,-7.38025 0.18334,-0.73333 0.41753,-2.98333 0.52042,-5 0.1029,-2.01666 0.74127,-4.5428 1.4186,-5.61364 1.0569,-1.67091 1.60927,-1.60513 3.89557,0.46394 1.46522,1.32602 3.25105,2.04815 3.9685,1.60474 0.71745,-0.44341 3.15402,0.75011 5.4146,2.65226 4.65521,3.9171 4.46081,4.1704 6.73413,-8.77396 1.81575,-10.33895 5.10893,-21.00749 6.80895,-22.05816 1.8706,-1.1561 10.29517,5.84117 14.64564,12.16436 2.13643,3.1052 5.30668,10.02626 7.045,15.38014 l 3.16059,9.73433 2.42433,-5.277 c 3.10689,-6.76273 8.26171,-11.16818 13.13911,-11.22905 2.86225,-0.0357 5.24254,1.45782 9.33333,5.85637 11.87673,12.77018 14.36851,16.35017 19.52561,28.05274 4.54543,10.31455 3.92194,10.66065 -19.26214,10.69214 -17.27872,0.0235 -19.78783,0.30578 -20.93486,2.3554 -0.77143,1.37847 -2.876,2.32873 -5.1575,2.32873 -2.11986,0 -8.01263,1.5 -13.09506,3.33333 -9.91852,3.57781 -9.89382,3.57531 -18.91815,1.91738 z m 21.83212,-9.19637 c -1.04385,-1.04385 -40.66498,0.0907 -43.74392,1.25256 -1.96072,0.73992 -0.0643,1.29869 6.57847,1.93836 5.13333,0.49432 12.33333,1.34527 16,1.89101 5.18732,0.77208 8.34916,0.39217 14.24885,-1.71204 4.1702,-1.48737 7.28267,-3.00382 6.9166,-3.36989 z m -54.26248,-0.76684 c 1.54227,-1.54227 6.3605,-1.97271 22.85893,-2.04215 35.37879,-0.14889 84.73882,-1.30163 85.43236,-1.99517 2.64358,-2.64358 -19.51801,-33.26145 -25.91578,-35.80457 -4.8363,-1.92242 -9.12393,1.87261 -12.95962,11.47072 -4.41601,11.05027 -7.10634,11.68409 -7.92053,1.86601 -1.09628,-13.21977 -15.61371,-37.43363 -19.88343,-33.16391 -0.80714,0.80714 -2.2529,7.88362 -3.2128,15.72551 -1.49655,12.22606 -1.46714,15.19455 0.20637,20.82987 1.14148,3.84379 2.52536,6.2173 3.33371,5.71771 0.84269,-0.52081 1.20822,0.36952 0.93661,2.28133 -0.26001,1.83018 -1.95582,3.85712 -4.07347,4.86889 -3.06677,1.46523 -4.25884,1.40717 -7.70583,-0.37534 -2.24279,-1.15979 -4.58,-1.79834 -5.19379,-1.419 -0.61379,0.37934 -2.10102,-0.39875 -3.30497,-1.72909 -2.03823,-2.25223 -2.00459,-2.58568 0.48847,-4.84188 3.06419,-2.77305 3.45694,-4.67643 0.96494,-4.67643 -0.94189,0 -2.81523,-1.86674 -4.16299,-4.14831 -1.86512,-3.1574 -2.72514,-3.71476 -3.60039,-2.33333 -1.62024,2.55728 -1.46574,10.14314 0.27273,13.39151 1.12666,2.10519 1.02109,3.17697 -0.45869,4.65675 -1.67403,1.67403 -2.50848,1.57673 -6.4635,-0.75364 -5.83772,-3.4397 -20.51717,-5.02114 -26.93801,-2.90208 -6.75067,2.22792 -11.60329,6.41949 -11.60329,10.02261 0,5.43254 2.19692,6.16409 21.14107,7.03971 3.63608,0.16807 6.53845,-0.46227 7.7619,-1.68572 z"
       id="path1" />
  </g>
</svg>
